<?xml version="1.0" encoding="UTF-8"?>
<svg width="18px" height="18px" viewBox="0 0 18 18" version="1.1" xmlns="http://www.w3.org/2000/svg" xmlns:xlink="http://www.w3.org/1999/xlink">
    <title>positioning</title>
    <g id="地图搜索" stroke="none" stroke-width="1" fill="none" fill-rule="evenodd">
        <g id="地图-无关键词搜索" transform="translate(-330.000000, -753.000000)" fill-rule="nonzero">
            <g id="positioning" transform="translate(330.000000, 753.000000)">
                <rect id="矩形" fill="#000000" opacity="0" x="0" y="0" width="18" height="18"></rect>
                <path d="M1.625625,9.750375 C1.98226852,13.2503659 4.74963407,16.0177315 8.249625,16.374375 L8.249625,14.250375 C8.249625,13.8359543 8.58557933,13.5 9,13.5 C9.41442067,13.5 9.750375,13.8359543 9.750375,14.250375 L9.750375,16.374375 C13.2503659,16.0177315 16.0177315,13.2503659 16.374375,9.750375 L14.250375,9.750375 C13.8359543,9.750375 13.5,9.41442067 13.5,9 C13.5,8.58557933 13.8359543,8.249625 14.250375,8.249625 L16.374375,8.249625 C16.0177315,4.74963407 13.2503659,1.98226852 9.750375,1.625625 L9.750375,3.749625 C9.750375,4.16404567 9.41442067,4.5 9,4.5 C8.58557933,4.5 8.249625,4.16404567 8.249625,3.749625 L8.249625,1.625625 C4.74963407,1.98226852 1.98226852,4.74963407 1.625625,8.249625 L3.749625,8.249625 C4.16404567,8.249625 4.5,8.58557933 4.5,9 C4.5,9.41442067 4.16404567,9.750375 3.749625,9.750375 L1.625625,9.750375 Z M9,18 C4.02943725,18 0,13.9705627 0,9 C0,4.02943725 4.02943725,0 9,0 C13.9705627,0 18,4.02943725 18,9 C18,13.9705627 13.9705627,18 9,18 Z M9,10.5885 C8.12269567,10.5885 7.4115,9.87730433 7.4115,9 C7.4115,8.12269567 8.12269567,7.4115 9,7.4115 C9.87730433,7.4115 10.5885,8.12269567 10.5885,9 C10.5885,9.87730433 9.87730433,10.5885 9,10.5885 Z" id="形状" fill="#2A2A2A"></path>
            </g>
        </g>
    </g>
</svg>